<?xml version="1.0" standalone="no"?>
<!DOCTYPE svg PUBLIC "-//W3C//DTD SVG 20010904//EN"
 "http://www.w3.org/TR/2001/REC-SVG-20010904/DTD/svg10.dtd">
<svg version="1.0" xmlns="http://www.w3.org/2000/svg"
 width="2921.000000pt" height="2921.000000pt" viewBox="0 0 2921.000000 2921.000000"
 preserveAspectRatio="xMidYMid meet">
<metadata>
Created by potrace 1.11, written by Peter Selinger 2001-2013
</metadata>
<g transform="translate(0.000000,2921.000000) scale(0.100000,-0.100000)"
fill="#000000" stroke="none">
<path d="M6860 21888 c-196 -56 -450 -135 -560 -175 -823 -295 -1407 -562
-1995 -913 -135 -81 -503 -318 -575 -371 -19 -14 -111 -79 -205 -144 -379
-264 -784 -578 -1045 -811 -19 -17 -78 -69 -130 -115 -365 -321 -886 -906
-1153 -1294 -91 -133 -257 -391 -257 -400 0 -2 -20 -38 -46 -80 -103 -176
-244 -477 -316 -679 -110 -308 -289 -1011 -324 -1274 -3 -26 -8 -49 -9 -52 -2
-3 -6 -37 -10 -75 -4 -39 -9 -77 -10 -85 -2 -8 -6 -44 -10 -80 -4 -36 -8 -76
-10 -89 -3 -13 -7 -67 -11 -120 -4 -53 -8 -99 -10 -102 -6 -11 -18 -313 -18
-454 0 -141 11 -420 19 -466 2 -13 6 -60 10 -104 40 -518 170 -1131 360 -1701
176 -527 559 -1175 1001 -1694 299 -351 586 -646 859 -885 44 -39 82 -73 85
-76 16 -18 335 -280 445 -365 566 -438 1161 -838 1650 -1109 608 -337 1464
-690 2175 -896 l145 -43 7700 0 7700 -1 160 46 c228 66 381 116 621 204 199
74 386 145 429 165 11 5 72 30 135 56 223 91 413 176 635 284 141 69 215 108
370 195 22 12 63 35 90 50 428 240 1128 720 1590 1088 603 482 929 799 1391
1352 295 352 538 723 729 1110 145 294 215 473 301 780 25 88 52 185 61 215
51 179 133 551 157 710 15 104 36 251 41 295 3 28 7 66 10 85 25 197 41 518
39 775 -3 198 -20 475 -39 605 -2 14 -6 57 -10 95 -23 241 -128 789 -186 970
-5 17 -30 104 -55 195 -66 240 -127 426 -179 545 -8 17 -29 66 -48 110 -204
472 -517 952 -945 1450 -580 674 -1255 1250 -2232 1902 -572 381 -991 609
-1609 872 -113 48 -255 107 -316 130 -60 24 -123 49 -140 56 -139 59 -569 207
-822 282 l-158 47 -7705 1 c-7476 1 -7707 1 -7770 -17z"/>
</g>
</svg>
